<svg xmlns="http://www.w3.org/2000/svg" version="1.1" xmlns:xlink="http://www.w3.org/1999/xlink" viewBox="0 0 200 200"><rect width="200" height="200" fill="url('#gradient')"></rect><defs><linearGradient id="gradient" gradientTransform="rotate(0 0.5 0.5)"><stop offset="0%" stop-color="#2e1840"></stop><stop offset="100%" stop-color="#124465"></stop></linearGradient></defs><g><g fill="#b457ff" transform="matrix(4.604031007751938,0,0,4.604031007751938,37.06101956016334,132.2759752207024)" stroke="#15374d" stroke-width="0"><path d="M12.95-14.22L12.95 0L9.54 0L4.50-8.85L4.50 0L1.07 0L1.07-14.22L4.50-14.22L9.53-5.37L9.53-14.22L12.95-14.22ZM22.84-14.22L26.27-14.22L26.27-4.91Q26.27-3.33 25.60-2.17Q24.92-1.02 23.66-0.41Q22.40 0.20 20.68 0.20L20.68 0.20Q18.09 0.20 16.59-1.15Q15.10-2.50 15.07-4.84L15.07-4.84L15.07-14.22L18.52-14.22L18.52-4.78Q18.57-2.44 20.68-2.44L20.68-2.44Q21.75-2.44 22.29-3.03Q22.84-3.61 22.84-4.93L22.84-4.93L22.84-14.22Z"></path></g></g></svg>